<svg xmlns="http://www.w3.org/2000/svg" viewBox="0 0 64 64" width="512" height="512"><path d="M57.996 32.454C57.900 37.932 56.018 43.365 52.704 47.728C49.389 52.091 44.660 55.361 39.409 56.922C34.157 58.483 28.409 58.327 23.250 56.483C18.090 54.639 13.546 51.117 10.473 46.581C7.401 42.044 5.816 36.518 6.018 31.042C6.219 25.567 8.207 20.172 11.605 15.874C15.003 11.576 19.795 8.398 25.076 6.939C30.357 5.480 36.101 5.747 41.223 7.691C46.346 9.635 50.821 13.244 53.805 17.839L47.366 19.995C44.906 16.846 41.308 14.631 37.491 13.787C33.674 12.942 29.679 13.454 26.340 15.029C23.001 16.604 20.331 19.209 18.672 22.197C17.013 25.186 16.349 28.533 16.569 31.701C16.790 34.868 17.871 37.858 19.580 40.413C21.289 42.968 23.658 45.116 26.529 46.503C29.401 47.890 32.783 48.490 36.154 47.997C39.525 47.505 42.862 45.894 45.394 43.328C47.925 40.761 49.610 37.243 49.932 33.569ZM57.721 28.200A26 26 0 0 1 57.721 35.800H36.800A3.800 3.800 0 0 1 36.800 28.200Z" fill="#E85D00"/></svg>